<?xml version='1.0' encoding='utf-8'?>
<svg xmlns="http://www.w3.org/2000/svg" version="1.1" viewBox="0 0 553.99 424.78">
 <path d="m70.329 232.7c2.8992 1.0247 9.1842 2.0593 13.968 2.301 4.784 0.24164 13.631-0.47794 19.659-1.5999l10.96-2.0393 10.778-5.431 10.777-5.4318 12.595-11.358 12.594-11.358 6.2-17.409 6.1994-17.408-1.4735-7.6366c-0.81131-4.2011-1.1676-8.5138-0.79285-9.5848l0.6813-1.9484 1.9616 3.7887c1.0784 2.0828 3.1874 14.049 4.6858 26.591l2.7236 22.803-7.9512 3.1422-7.9506 3.1421-3.2704 5.3355c-1.7987 2.9343-3.4537 6.5864-3.6775 8.1158-0.22449 1.5295-1.7276 4.0551-3.3398 5.6114l-2.9324 2.8288 3.0914 4.1121 3.0926 4.1111 5.6157 0.8728c3.0881 0.47949 9.3722 1.5294 13.964 2.3311l8.3486 1.4584 1.1541 2.7541c0.6346 1.515 0.86043 5.7797 0.50178 9.4779l-0.6524 6.7231 5.5673 10.101 5.5685 10.099 6.9537 4.0109 6.9552 4.0113 11.373 1.7807 11.373 1.7814 14.864-3.2451 14.864-3.2444 12.515-8.0255 12.515-8.0255 8.3668-8.7592 8.3662-8.7591 6.042-15.389 6.0415-15.388-1.9022-9.4654-1.903-9.466-4.5095-6.2339-4.5088-6.2348-8.4916-4.2018-8.4903-4.2027-8.8822-0.0929-8.8808-0.0931-0.1173-2.5762c-0.0647-1.4175 0.28146-6.8161 0.76883-11.998l0.8855-9.4212 2.2519-2.3883c1.238-1.3136 3.0654-2.0804 4.0592-1.704l1.808 0.6849 4.221-5.1605 4.2206-5.1597-2.5039 4.7706-2.5045 4.7708 2.3349 0.8499c1.2842 0.46756 6.6563 0.39636 11.938-0.15802l9.6029-1.0072 6.1927-3.5263 6.1929-3.5257 4.5006-12.868 4.5009-12.868-3.1702-4.1731-3.1696-4.1732-5.8448 2.86c-3.2143 1.5727-9.7355 3.3194-14.492 3.8822l-8.6469 1.0223-4.0266-1.5174-4.0267-1.5173 3.0945 6.0384 3.0943 6.0377-0.1337 6.4935-0.1337 6.4935-2.367 0.3265-2.3665 0.3257 0.8289-1.4003c0.45608-0.77031 1.2521-2.9713 1.7697-4.8911l0.9402-3.4915-4.7511-8.6191-4.7519-8.619 7.2197 0.3979 7.2197 0.398 6.1776-2.5882 6.1776-2.5881-2.9373-2.383-2.9367-2.3832-2.2044 2.3379-2.2044 2.3379-9.2815 0.5556c-5.1051 0.30548-9.8419 0.34277-10.527 0.0831-0.68515-0.25964 2.093-1.4669 6.1732-2.6836l7.4192-2.2127-1.0772-1.9579-1.0767-1.9588-5.7007 1.814-5.7001 1.8139 3.2913-3.9524c1.8109-2.1737 3.8082-5.9461 4.44-8.3823 0.6311-2.4368 0.88153-5.3832 0.55624-6.5487-0.32587-1.1647-1.4546-2.4444-2.5082-2.8436l-1.9151-0.7257-0.6596 5.4697-0.6589 5.4696-6.7361 9.9267-6.7361 9.9267-8.9312-2.7435-8.9312-2.7435 3.8528-11.016 3.8523-11.015-1.5729-1.7886-1.5722-1.788-2.651 3.2173-2.6523 3.2182-4.0637-5.7319-4.0642-5.731-4.2252-1.6003-4.2245-1.6004 4.4881-1.9819c2.4682-1.0907 6.217-3.648 8.3297-5.6836l3.8423-3.7012-2.8995 4.6211-2.9004 4.6205 1.628 0.61661c0.89618 0.33888 3.4148-0.61366 5.5989-2.1174l3.9696-2.7337 4.7162 5.1714 4.7162 5.1706 8.2118-0.0264 8.2103-0.0269-6.6458-2.6869-6.6458-2.6869-4.5817-4.1491c-2.5194-2.2814-4.3624-4.7747-4.0948-5.54 0.26761-0.76531 0.37329-2.9147 0.23318-4.7771l-0.2537-3.3855 7.4205 2.8107 7.4198 2.8105 1.9351-1.3468 1.9343-1.347-8.4882-3.2154-8.4888-3.2152 1.8059-5.163 1.8053-5.1629-2.8588-5.6344-2.8581-5.6341-8.3877-3.1772-8.3884-3.1771-7.0244 0.4566-7.0244 0.4566-7.4854 4.122-7.4853 4.1225-1.15 3.2888-1.1506 3.289 3.7406 6.2351 3.7399 6.2353-1.6357 4.6787-1.6365 4.6788 2.6335 0.9976 2.6335 0.9976 1.3082 4.5928 1.3081 4.5927-4.5099 0.353-4.509 0.3536-3.0492-5.9506-3.0499-5.9508 2.6359-2.9641 2.6373-2.9639-3.1374 1.044c-1.726 0.57412-4.1133 2.6156-5.3051 4.5367-1.1931 1.9209-5.7164 5.9092-10.054 8.8625-4.3374 2.9533-9.1243 5.5405-10.639 5.7492-1.5143 0.20856-6.7718 2.7307-11.682 5.6049l-8.9283 5.2255-10.047 0.3775-10.045 0.378-7.8777 6.186-7.8778 6.1853 3.5304 5.1208 3.5304 5.1208 8.7466 2.7429 8.7465 2.7421 1.6123-1.8935 1.6125-1.8928-2.7095-1.0264-2.7103-1.027 13.511-5.2804c7.4312-2.9045 14.298-4.9827 15.258-4.619 0.9605 0.36374 3.2585 3.6586 5.1047 7.3211l3.3572 6.6596 2.444-0.337 2.4434-0.3362 0.6519 2.3308 0.652 2.3314-8.7291 6.601c-4.8008 3.6311-11.737 7.7095-15.412 9.0633l-6.6828 2.4608-11.894-4.1275-11.893-4.1276-11.894 0.4354-11.895 0.4355-15.539 5.9359-15.538 5.9357-12.427 10.714-12.426 10.713-6.5848 11.195-6.5852 11.194-0.944 10.91-0.9438 10.91 3.9565 9.1079 3.9574 9.1077 7.0893 4.8258c3.8987 2.6539 9.4605 5.6633 12.359 6.686zm1.1665-5.7971-6.0386-2.1289-6.5645-6.9209-6.5651-6.9215-1.219-8.989-1.2192-8.9897 4.7359-12.8 4.7361-12.8 8.4251-8.9209 8.4258-8.921 13.709-7.6515 13.71-7.6501 12.198-2.1154 12.197-2.1151 8.7091 0.9227 8.709 0.922 4.8892 3.1746 4.889 3.1732-20.51 14.579c-11.281 8.0177-23.541 15.822-27.245 17.341-3.7028 1.5192-6.9344 3.3367-7.1803 4.0383-0.24568 0.70299 0.52472 1.6451 1.711 2.094l2.1566 0.8172 2.4071-2.7281c1.3233-1.4996 5.8178-4.2427 9.9879-6.095 4.1696-1.8516 14.482-8.1615 22.916-14.021 8.4338-5.8602 16.312-11.29 17.507-12.069l2.1723-1.4146 1.6576 3.0061 1.6571 3.007-16.523 15.548-16.524 15.549-7.9081 2.8259-7.9074 2.8257-0.9239 2.6415-0.9245 2.6423 9.0862-3.9466 9.0863-3.9458 16.836-14.573c9.2592-8.0148 17.506-14.319 18.325-14.008 0.8194 0.3098 1.5691 3.9923 1.6647 8.1817l0.1735 7.6177-5.8746 13.779-5.8734 13.778-10.502 9.3811c-5.7766 5.1591-14.729 11.805-19.893 14.768l-9.3913 5.3881-11.514 2.2918c-6.3322 1.2598-14.849 2.1265-18.925 1.9247-4.0774-0.2016-10.131-1.3241-13.451-2.495zm143.94 52.42-4.9681-1.7033-6.2099-5.7824-6.21-5.7831-1.622-5.2466c-0.89188-2.8864-1.5585-8.3177-1.4807-12.071 0.0772-3.753 0.42316-6.9219 0.76819-7.0427 0.34582-0.12027 9.7712 2.5879 20.946 6.0205 11.175 3.4327 21.246 6.1187 22.38 5.9702l2.0629-0.27 0.2803-4.8659 0.281-4.866 2.9177-4.0938 2.9183-4.0946 8.3649 3.1688 8.3655 3.1687 0.3157-5.4728c0.17383-3.0107 1.4814-16.237 2.906-29.391 1.4247-13.155 2.8847-23.984 3.2447-24.065 0.36081-0.0806 4.1866 0.11614 8.5018 0.43735 4.3159 0.32103 10.391 1.5474 13.5 2.7248l5.6523 2.1409 5.4482 6.7432 5.449 6.7431 1.7638 7.9471 1.7646 7.9469-6.0014 14.365-6.0015 14.364-9.629 9.6451-9.6291 9.6444-11.971 6.5021-11.971 6.5021-12.195 1.8818c-6.7068 1.0352-15.07 1.5783-18.584 1.2086-3.5145-0.3703-8.6259-1.4392-11.358-2.376zm-17.842-40.146-1.7842-0.3851 3.0431-6.5995 3.0431-6.5995 8.7766 1.9939c4.8268 1.0973 13.352 3.1626 18.944 4.591l10.169 2.5961-0.5614 6.1714-0.5615 6.1707-2.7747 1.0599-2.774 1.0598-16.868-4.8369c-9.2771-2.6599-17.671-5.0094-18.653-5.2219zm-12.557-4.4653-4.2629-1.615 4.3519-1.9907 4.3533-1.9902 3.5408-5.4362 3.5416-5.4356 1.2135 1.38 1.2128 1.3801-1.8514 4.1153c-1.019 2.2635-3.1993 5.7107-4.8447 7.662l-2.992 3.5451-4.2629-1.6149zm-21.238-16.362c-0.39726-0.1507 9.2e-4 -2.3391 0.8837-4.8645l1.6058-4.5907 4.1831 1.5843 4.1823 1.5837-0.4308 1.2331c-0.23755 0.67776-2.5169 2.1537-5.0669 3.2795-2.5493 1.1264-4.9607 1.9248-5.3571 1.7746zm47.185 4.9603-5.2459-1.9314 16.673 2.2541 16.674 2.2545 0.7873 1.4294 0.7887 1.4292-1.5555 0.5938c-0.85522 0.32666-6.3523-0.46146-12.216-1.7517-5.8633-1.2903-13.021-3.216-15.905-4.2779zm-33.064-12.122c-2.0069-0.77783-4.6145-2.5362-5.7941-3.9073l-2.145-2.494 5.5718-1.8126 5.5716-1.814 0.9936 3.4135c0.54681 1.8777 0.64722 4.452 0.22318 5.7212l-0.7704 2.3077-3.6507-1.4145zm22.313 6.4038c-0.44144-0.16705-0.72101-2.0413-0.62201-4.1647l0.1811-3.8612 2.6765-1.8156 2.6764-1.8155-2.0544 5.9802c-1.1313 3.2892-2.4167 5.844-2.8575 5.6768zm50.481 17.041c-0.19632-0.074 0.76446-1.9471 2.1338-4.1613l2.4905-4.0262-1.6241-5.5238-1.6234-5.5239 3.7851-15.481 3.7845-15.481 2.5428-0.3494 2.5418-0.3507-0.1012 3.6316c-0.0562 1.9969-1.0397 13.029-2.186 24.515l-2.0848 20.884-4.6515 1.0009c-2.5585 0.54999-4.812 0.93909-5.0076 0.86496zm-59.863-25.861c-0.90289-2.458-1.408-5.1378-1.1222-5.9545l0.5194-1.4852 3.8929 1.4743 3.893 1.4743-2.7714 4.4803-2.7706 4.481-1.6411-4.4702zm21.476 8.9999-3.7342-1.1734 0.8615-2.4632 0.8621-2.464 8.8294 0.9352c4.8558 0.51462 12.248 2.2311 16.429 3.8145l7.5999 2.8785-0.6176 1.7657-0.6177 1.7656-8.4608-1.2027c-4.6534-0.66177-10.476-1.5354-12.939-1.9427-2.463-0.40726-6.158-1.2679-8.2123-1.9134zm23.362-3.3874-12.786-4.8432 0.6345-1.8133 0.6344-1.8133 10.18-1.4971 10.18-1.497 1.0887-7.4222 1.0881-7.4221 3.8416-1.0716 3.8417-1.0709-1.2479 7.4169c-0.68594 4.0783-2.0179 11.57-2.959 16.646l-1.7116 9.2305-12.786-4.8425zm-45.431-17.208-2.1115-0.7996-2.8755-20.196-2.8747-20.196 3.1387-0.4695c1.7258-0.25769 4.8909 0.17958 7.0326 0.97369l3.8939 1.4432-0.2422-3.2234-0.2414-3.2229 9.2753-1.3216c5.1002-0.72664 16.227-1.8366 24.726-2.4664l15.452-1.145 4.2317-2.7696 4.2303-2.7693 8.3899-14.401 8.39-14.4-1.3405 4.5212c-0.73657 2.487-4.2336 9.405-7.7699 15.373l-6.4301 10.851-6.5512 3.1197-6.5491 3.1194-19.745 1.8802-19.743 1.88-6.8257 19.356-6.8257 19.355 1.7393 3.1544 1.7388 3.1545-2.1123-0.8002zm23.55-7.7179c-0.3779-0.14278 0.38269-1.5586 1.691-3.1461l2.3782-2.8861 2.2207-12.122 2.2208-12.122 5.323-1.0544 5.3225-1.0536-0.1707 9.2274-0.1708 9.2267-4.3427 7.3133-6.893 3.4384c-3.7912 1.8913-7.2017 3.321-7.579 3.1782zm36.202-15.473 1.8591-7.3853 4.1477-3.1877 4.1477-3.1878-1.9453 9.6616-1.9453 9.6617-4.0615 0.9114-4.0614 0.9121 1.859-7.386zm12.674 4.8709-2.0768-0.7866 1.6499-9.0243c0.90787-4.9624 2.2889-10.757 3.0694-12.875l1.4187-3.8518 0.9036 3.5716c0.49728 1.9644 0.0508 8.1126-0.9924 13.663l-1.8957 10.089-2.0767-0.7859zm-96.114-38.485-2.0908-0.7919 0.6805-1.9454 0.6801-1.9439 1.6938 1.9268c0.93187 1.0592 1.567 2.2915 1.4117 2.7371-0.15605 0.44493-1.225 0.4527-2.3752 0.0174zm20.473-2.6689-2.6215-0.9678 0.6135-1.7534c0.33688-0.96416 3.7439-2.949 7.5711-4.4113l6.9582-2.658 7.8525 2.9745 7.8517 2.9739 3.2809-1.2527c1.8033-0.68896 3.4835-1.8356 3.7331-2.548l0.4524-1.2938-8.7965-2.2052-8.7958-2.2054-1.8304-4.6167-1.8298-4.6175 2.4923-3.6893 2.4923-3.6893-6.3815-1.2211-6.3823-1.2217-5.445-5.3907-5.4452-5.3914 10.056-7.0372c5.5306-3.8701 14.678-8.8251 20.328-11.011l10.271-3.9742 7.0108 2.6558 7.0101 2.6553 5.616 6.8728 5.6153 6.8729-1.1737 7.6305-1.1742 7.6313-3.2978 4.1261-3.299 4.1271 1.0225-3.5073 1.0226-3.5066-4.2441 1.1836-4.2439 1.1842-2.2034 9.9082-2.2019 9.9086-8.5778 3.0861c-4.7174 1.6968-13.551 3.5946-19.631 4.2155-6.0789 0.62222-12.233 0.69525-13.675 0.16255zm71.169 14.504c-0.50714-0.19168-0.63315-1.1759-0.27978-2.1855l0.6423-1.8363 2.2148 0.8382 2.2148 0.8389-1.9349 1.3473c-1.0642 0.74101-2.35 1.1898-2.8572 0.99741zm-22.426-24.612-0.2514-2.6947 1.8571-1.896 1.8578-1.8961-1.6057 4.5907-1.6057 4.5914-0.2522-2.6953zm-93.656-34.156c-0.90329-0.20958-1.36-1.1885-1.0152-2.1749 0.34538-0.9873 3.4892-2.2624 6.9863-2.835 3.4972-0.57199 6.6802-0.4579 7.0723 0.25386 0.39281 0.71164-0.31741 2.3878-1.5777 3.7249l-2.2917 2.4309-3.7654-0.5098c-2.071-0.27931-4.5038-0.67987-5.4086-0.88989zm96.725 26.48c-0.5751-0.21802-0.90124-0.80959-0.72492-1.3143 0.17682-0.50557 0.79199-0.74068 1.3673-0.52197 0.57498 0.21733 0.90115 0.8089 0.72415 1.3138-0.1763 0.50474-0.79144 0.73985-1.3666 0.52254zm36.747-6.8783-2.7885-1.0565 1.8221-0.696 1.8228-0.6962 0.9658 1.7526 0.9664 1.7525-2.7885-1.0564zm-26.009-57.684c-0.57443-0.21779-0.9006-0.80924-0.72427-1.3142 0.17697-0.50507 0.79211-0.74004 1.3666-0.52224 0.5751 0.21764 0.90124 0.80907 0.72427 1.3142-0.1763 0.50495-0.79147 0.73992-1.3666 0.52227zm-22.532-19.491-0.1244-2.2999 9.7215-3.231 9.7207-3.2313 4.7078 1.8753 4.7077 1.875-9.0002 0.6579-9.0016 0.6579-5.304 2.9979-5.3032 2.9982-0.1244-2.3zm14.463 5.9616-3.313-1.3297 7.7467-2.0982c4.2608-1.1539 8.04-1.5662 8.3982-0.91637 0.35818 0.65017-1.637 2.1926-4.4338 3.428l-5.0852 2.246-3.3129-1.3297zm42.342 269.36c7.8264 2.7636 19.121 6.2756 25.098 7.8068l10.869 2.7826-24.472-9.5962-24.473-9.5961-0.6259 1.7901-0.6259 1.7902 14.23 5.0226zm-178.27-67.572c8.0478 3.063 17.645 6.0934 21.329 6.7347l6.6976 1.166 51.155 10.138-56.681-14.653-18.566-4.4771-109.53-31.645 105.6 32.737zm149.83 52.413 24.875 8.4453 10.13 3.203 0.6069-1.7356 0.6069-1.7355-3.695-1.2849c-2.0329-0.70694-13.5-3.7264-25.482-6.7104l-21.787-5.4248 14.745 5.2429zm62.657-189.78c0.84613 0.32072 2.2466 0.31253 3.1122-0.0182l1.5742-0.6016-1.7493-8.3388-1.7501-8.3386-5.4724-5.9479c-3.0098-3.2714-9.5733-8.6984-14.585-12.06l-9.1117-6.1127-0.4551 1.3015c-0.25049 0.71536 2.6969 3.7164 6.5492 6.6678 3.8524 2.9521 9.8986 8.9184 13.436 13.258l6.4324 7.8907 0.2402 5.8583c0.13272 3.222 0.93341 6.1208 1.7788 6.4409z" fill="#b2b2b2"/>
 <g transform="translate(-66.961 -53.28)" font-family="serif" font-size="24px" stroke-width="0" text-anchor="middle">
  <text x="988" y="732" opacity=".5"/>
  <text x="765" y="944" opacity=".5"/>
  <text x="692" y="825" opacity=".5"/>
 </g>
 <path d="m172.37 298.98c4.261 1.447 13.498 2.908 20.53 3.249 7.031 0.34201 20.033-0.67499 28.892-2.259l16.109-2.88 15.839-7.67 15.84-7.671 18.511-16.041 18.51-16.04 9.112-24.586 9.111-24.585-2.166-10.784c-1.192-5.933-1.715-12.024-1.165-13.537l1.002-2.751 2.883 5.35c1.584 2.942 4.684 19.841 6.886 37.554l4.003 32.203-11.686 4.438-11.685 4.437-4.806 7.535c-2.644 4.144-5.076 9.302-5.405 11.462-0.32999 2.16-2.539 5.727-4.909 7.925l-4.309 3.995 4.543 5.807 4.545 5.806 8.254 1.233c4.538 0.677 13.774 2.16 20.523 3.292l12.27 2.059 1.697 3.89c0.93201 2.14 1.264 8.162 0.737 13.385l-0.959 9.495 8.183 14.265 8.184 14.262 10.219 5.665 10.222 5.665 16.715 2.515 16.715 2.515 21.845-4.583 21.845-4.582 18.393-11.334 18.394-11.334 12.296-12.37 12.296-12.37 8.88-21.733 8.879-21.732-2.795-13.368-2.797-13.369-6.6281-8.803-6.626-8.805-12.48-5.934-12.479-5.936-13.054-0.131-13.052-0.132-0.172-3.638c-0.095-2.002 0.41296-9.626 1.1299-16.943l1.301-13.306 3.31-3.373c1.819-1.855 4.505-2.938 5.965-2.406l2.658 0.967 6.203-7.288 6.203-7.287-3.68 6.738-3.681 6.737 3.432 1.201c1.887 0.66 9.783 0.55901 17.546-0.224l14.113-1.422 9.1019-4.98 9.101-4.979 6.6151-18.174 6.615-18.173-4.6591-5.893-4.6589-5.894-8.59 4.039c-4.724 2.221-14.308 4.688-21.298 5.483l-12.709 1.444-5.918-2.143-5.918-2.143 4.548 8.528 4.548 8.527-0.197 9.17-0.196 9.171-3.479 0.461-3.478 0.46 1.218-1.978c0.67096-1.088 1.8409-4.196 2.601-6.908l1.382-4.93-6.983-12.173-6.984-12.172 10.611 0.562 10.611 0.562 9.079-3.655 9.08-3.655-4.317-3.366-4.317-3.365-3.239 3.301-3.24 3.302-13.641 0.785c-7.503 0.431-14.465 0.48399-15.472 0.11699-1.007-0.36699 3.076-2.072 9.073-3.79l10.904-3.125-1.583-2.765-1.583-2.766-8.3779 2.562-8.3781 2.561 4.838-5.582c2.661-3.069 5.596-8.397 6.525-11.837 0.92798-3.442 1.296-7.603 0.81799-9.249-0.479-1.645-2.1381-3.452-3.687-4.016l-2.815-1.025-0.969 7.725-0.968 7.725-9.9 14.019-9.9 14.019-13.127-3.875-13.126-3.874 5.663-15.558 5.661-15.556-2.311-2.526-2.311-2.525-3.896 4.543-3.898 4.545-5.973-8.095-5.973-8.0935-6.21-2.2601-6.208-2.2602 6.596-2.7989c3.627-1.5403 9.137-5.1519 12.242-8.0268l5.647-5.2271-4.261 6.5263-4.263 6.5253 2.393 0.8708c1.317 0.4785 5.018-0.86669 8.228-2.9904l5.834-3.8607 6.932 7.3033 6.931 7.3023 12.069-0.0373 12.067-0.0379-9.767-3.7946-9.7679-3.7946-6.733-5.8597c-3.703-3.222-6.412-6.7431-6.019-7.8239 0.39398-1.0809 0.54901-4.1163 0.34296-6.7465l-0.373-4.7812 10.906 3.9694 10.905 3.9691 2.8441-1.902 2.843-1.9023-12.475-4.5409-12.476-4.5408 2.6539-7.2916 2.653-7.2913-4.201-7.9571-4.201-7.9569-12.327-4.487-12.329-4.4869-10.324 0.6448-10.324 0.6448-11.001 5.8214-11.001 5.8221-1.69 4.6447-1.691 4.6449 5.497 8.8056 5.497 8.8058-2.404 6.6075-2.405 6.6076 3.87 1.4088 3.871 1.4089 1.922 6.4863 1.923 6.486-6.628 0.4986-6.627 0.4993-4.482-8.4038-4.482-8.404 3.874-4.1861 3.876-4.1859-4.611 1.4744c-2.537 0.81089-6.046 3.6939-7.797 6.407-1.754 2.7128-8.402 8.3454-14.776 12.516-6.375 4.1708-13.41 7.8246-15.637 8.1193-2.226 0.2946-9.952 3.8564-17.168 7.9156l-13.122 7.3799-14.766 0.533-14.763 0.534-11.578 8.736-11.578 8.735 5.188 7.232 5.189 7.232 12.855 3.874 12.855 3.872 2.369-2.674 2.37-2.673-3.982-1.45-3.984-1.45 19.857-7.457c10.922-4.102 21.013-7.037 22.425-6.523 1.412 0.513 4.789 5.166 7.503 10.339l4.934 9.405 3.592-0.476 3.591-0.475 0.958 3.292 0.958 3.292-12.829 9.323c-7.056 5.128-17.249 10.887-22.65 12.799l-9.822 3.476-17.481-5.829-17.48-5.83-17.481 0.615-17.481 0.615-22.838 8.383-22.836 8.383-18.264 15.132-18.263 15.129-9.6778 15.809-9.6782 15.809-1.3874 15.407-1.3871 15.408 5.8149 12.863 5.8162 12.862 10.419 6.816c5.73 3.748 13.904 7.998 18.163 9.442zm1.715-8.187-8.875-3.007-9.648-9.774-9.6487-9.775-1.7916-12.695-1.7918-12.695 6.9601-18.077 6.961-18.077 12.382-12.599 12.384-12.598 20.148-10.806 20.149-10.804 17.928-2.988 17.926-2.987 12.799 1.303 12.8 1.302 7.186 4.484 7.185 4.481-30.144 20.589c-16.579 11.323-34.598 22.345-40.041 24.491-5.442 2.145-10.192 4.712-10.553 5.703-0.36102 0.992 0.771 2.323 2.514 2.957l3.17 1.154 3.538-3.853c1.944-2.118 8.55-5.992 14.679-8.608 6.128-2.614 21.285-11.526 33.68-19.801 12.395-8.276 23.974-15.945 25.73-17.044l3.193-1.998 2.436 4.246 2.436 4.246-24.284 21.959-24.285 21.96-11.622 3.99-11.622 3.991-1.358 3.731-1.359 3.731 13.355-5.573 13.354-5.573 24.743-20.58c13.608-11.319 25.728-20.222 26.932-19.783 1.204 0.437 2.306 5.638 2.446 11.554l0.255 10.758-8.634 19.46-8.632 19.459-15.435 13.248c-8.489 7.286-21.646 16.673-29.237 20.857l-13.802 7.61-16.923 3.236c-9.306 1.779-21.823 3.003-27.814 2.719-5.993-0.285-14.889-1.87-19.769-3.524zm211.54 74.03-7.302-2.405-9.127-8.167-9.126-8.167-2.384-7.41c-1.311-4.076-2.291-11.746-2.177-17.047 0.11401-5.3 0.62201-9.775 1.129-9.946 0.509-0.17001 14.361 3.655 30.785 8.503 16.423 4.848 31.224 8.641 32.891 8.431l3.032-0.381 0.412-6.872 0.413-6.872 4.288-5.782 4.289-5.782 12.294 4.475 12.295 4.475 0.464-7.729c0.25598-4.252 2.177-22.93 4.271-41.508s4.24-33.872 4.769-33.987c0.52997-0.11298 6.153 0.164 12.495 0.61801 6.343 0.453 15.271 2.185 19.841 3.848l8.307 3.024 8.007 9.523 8.0081 9.523 2.593 11.223 2.593 11.223-8.82 20.287-8.821 20.286-14.151 13.621-14.152 13.621-17.594 9.182-17.594 9.183-17.922 2.658c-9.857 1.462-22.149 2.229-27.314 1.707-5.165-0.52301-12.678-2.033-16.692-3.356zm-26.223-56.696-2.622-0.544 4.472-9.32 4.473-9.32 12.899 2.816c7.094 1.55 19.623 4.466 27.843 6.483l14.946 3.667-0.826 8.716-0.825 8.714-4.078 1.497-4.077 1.497-24.791-6.831c-13.634-3.757-25.971-7.075-27.414-7.375zm-18.454-6.306-6.265-2.281 6.396-2.811 6.398-2.811 5.204-7.677 5.205-7.676 1.783 1.948 1.783 1.949-2.721 5.812c-1.498 3.197-4.702 8.065-7.121 10.821l-4.397 5.007-6.265-2.281zm-31.213-23.108c-0.58402-0.21298 1e-3 -3.303 1.299-6.87l2.36-6.483 6.148 2.237 6.146 2.237-0.633 1.741c-0.349 0.957-3.699 3.042-7.447 4.632-3.746 1.591-7.29 2.718-7.873 2.506zm69.348 7.005-7.71-2.727 24.504 3.183 24.506 3.184 1.158 2.019 1.159 2.018-2.286 0.839c-1.257 0.461-9.336-0.65201-17.955-2.474-8.617-1.822-19.137-4.542-23.376-6.042zm-48.594-17.118c-2.949-1.099-6.782-3.582-8.515-5.519l-3.153-3.522 8.189-2.56 8.188-2.561 1.461 4.82c0.80301 2.652 0.95102 6.288 0.328 8.08l-1.133 3.259-5.365-1.997zm32.794 9.043c-0.64902-0.23599-1.06-2.882-0.914-5.881l0.266-5.453 3.933-2.564 3.934-2.564-3.02 8.445c-1.662 4.646-3.551 8.253-4.199 8.017zm74.192 24.067c-0.289-0.10501 1.123-2.75 3.136-5.877l3.66-5.686-2.387-7.801-2.385-7.801 5.563-21.864 5.562-21.863 3.737-0.493 3.735-0.495-0.148 5.128c-0.083 2.821-1.528 18.4-3.213 34.622l-3.064 29.494-6.836 1.414c-3.761 0.77701-7.073 1.326-7.36 1.222zm-87.981-36.523c-1.327-3.471-2.069-7.255-1.649-8.409l0.763-2.097 5.722 2.082 5.721 2.082-4.073 6.327-4.072 6.329-2.412-6.314zm31.564 12.711-5.488-1.658 1.266-3.478 1.267-3.48 12.976 1.321c7.137 0.72598 18.002 3.15 24.146 5.387l11.169 4.065-0.907 2.493-0.908 2.494-12.435-1.699c-6.839-0.93399-15.397-2.168-19.016-2.743-3.62-0.57498-9.051-1.791-12.07-2.702zm34.335-4.784-18.791-6.84 0.932-2.561 0.933-2.561 14.962-2.114 14.962-2.114 1.6-10.482 1.599-10.482 5.646-1.514 5.646-1.512-1.834 10.474c-1.008 5.76-2.965 16.34-4.349 23.509l-2.515 13.036-18.791-6.839zm-66.771-24.303-3.103-1.129-4.226-28.523-4.225-28.521 4.613-0.663c2.536-0.364 7.188 0.25299 10.336 1.375l5.723 2.038-0.356-4.552-0.355-4.552 13.632-1.867c7.496-1.026 23.849-2.593 36.339-3.483l22.709-1.617 6.22-3.911 6.217-3.911 12.331-20.338 12.331-20.338-1.9709 6.386c-1.082 3.512-6.222 13.282-11.419 21.71l-9.451 15.325-9.628 4.406-9.625 4.405-29.019 2.656-29.017 2.655-10.031 27.335-10.032 27.334 2.556 4.455 2.556 4.455-3.105-1.13zm34.611-10.9c-0.55499-0.20099 0.56302-2.201 2.486-4.443l3.495-4.076 3.264-17.119 3.264-17.119 7.823-1.489 7.822-1.488-0.25 13.031-0.252 13.031-6.382 10.328-10.131 4.856c-5.572 2.671-10.584 4.69-11.139 4.488zm53.207-21.852 2.733-10.43 6.095-4.502 6.096-4.502-2.859 13.645-2.859 13.645-5.969 1.287-5.969 1.288 2.732-10.431zm18.627 6.879-3.053-1.111 2.425-12.744c1.334-7.009 3.364-15.192 4.511-18.183l2.085-5.44 1.328 5.044c0.73096 2.775 0.075 11.457-1.458 19.296l-2.786 14.248-3.052-1.11zm-141.26-54.351-3.073-1.119 1-2.747 0.999-2.745 2.49 2.721c1.369 1.496 2.303 3.236 2.074 3.865s-1.8 0.64-3.49 0.025zm30.088-3.769-3.853-1.367 0.902-2.476c0.495-1.362 5.502-4.165 11.127-6.23l10.227-3.754 11.541 4.201 11.539 4.2 4.822-1.769c2.651-0.97301 5.12-2.593 5.487-3.599l0.665-1.827-12.929-3.114-12.927-3.115-2.69-6.52-2.689-6.521 3.663-5.21 3.663-5.21-9.379-1.725-9.38-1.725-8.003-7.613-8.003-7.614 14.779-9.939c8.129-5.465 21.573-12.463 29.876-15.55l15.095-5.6126 10.304 3.7508 10.303 3.7499 8.254 9.7066 8.253 9.706-1.725 10.776-1.726 10.778-4.847 5.827-4.848 5.828 1.502-4.953 1.503-4.952-6.237 1.671-6.237 1.673-3.239 13.993-3.236 13.993-12.607 4.359c-6.933 2.396-19.916 5.076-28.851 5.953-8.934 0.879-17.979 0.98201-20.099 0.23zm104.6 20.483c-0.745-0.271-0.93005-1.661-0.41101-3.087l0.944-2.593 3.255 1.184 3.255 1.185-2.844 1.902c-1.564 1.047-3.453 1.68-4.199 1.409zm-32.959-34.759-0.37-3.806 2.73-2.677 2.73-2.678-2.36 6.483-2.36 6.485-0.37-3.807zm-137.65-48.237c-1.327-0.296-1.999-1.678-1.492-3.071 0.508-1.395 5.128-3.195 10.268-4.004 5.14-0.808 9.818-0.647 10.394 0.358 0.57703 1.006-0.466 3.373-2.319 5.261l-3.368 3.433-5.534-0.72c-3.043-0.394-6.619-0.95999-7.949-1.257zm142.16 37.397c-0.845-0.308-1.325-1.143-1.066-1.856 0.26001-0.71399 1.164-1.046 2.01-0.737 0.845 0.30701 1.324 1.142 1.064 1.855-0.259 0.713-1.163 1.045-2.008 0.73799zm54.008-9.714-4.099-1.492 2.678-0.983 2.679-0.983 1.42 2.475 1.42 2.475-4.098-1.492zm-38.227-81.465c-0.84399-0.3076-1.323-1.1428-1.064-1.856 0.25998-0.7132 1.164-1.0451 2.008-0.7375 0.84598 0.3074 1.325 1.1426 1.065 1.8559-0.259 0.7132-1.163 1.045-2.009 0.7376zm-33.115-27.527-0.182-3.2481 14.287-4.563 14.287-4.5634 6.919 2.6484 6.919 2.648-13.228 0.9291-13.229 0.9292-7.796 4.2337-7.794 4.2343-0.183-3.2482zm21.256 8.4193-4.869-1.8778 11.386-2.9633c6.262-1.6295 11.816-2.2118 12.342-1.2941 0.52698 0.9182-2.405 3.0965-6.516 4.8412l-7.474 3.1719-4.869-1.8779zm62.23 380.41c11.503 3.903 28.102 8.862 36.887 11.025l15.974 3.93-35.966-13.553-35.968-13.552-0.92 2.528-0.92 2.528 20.913 7.094zm-262.01-95.43c11.828 4.326 25.933 8.606 31.346 9.511l9.844 1.647 75.182 14.317-83.304-20.694-27.286-6.322-160.98-44.692 155.2 46.233zm220.2 74.02 36.559 11.927 14.888 4.524 0.892-2.451 0.891-2.451-5.4301-1.815c-2.988-0.99799-19.84-5.263-37.451-9.477l-32.02-7.661 21.671 7.404zm92.088-268.02c1.244 0.453 3.302 0.44099 4.574-0.026l2.314-0.85-2.571-11.776-2.572-11.776-8.043-8.4c-4.424-4.62-14.07-12.285-21.435-17.032l-13.392-8.6327-0.669 1.8381c-0.36798 1.0103 3.964 5.2485 9.626 9.4166 5.662 4.1692 14.548 12.595 19.747 18.724l9.454 11.144 0.353 8.274c0.19501 4.55 1.372 8.644 2.614 9.096z"/>
</svg>