<?xml version="1.0" encoding="UTF-8"?>
<svg viewBox="0 0 123.55 123.54" xmlns="http://www.w3.org/2000/svg">
 <path d="m38.379 83.639v7.0792c0 3.8753-3.1222 7.0316-6.9975 7.0316-3.8649 0-6.9856-3.1564-6.9856-7.0316v-7.0792h-7.1015v-22.955c0-5.0131 3.3658-9.2136 7.9377-10.479l8.2155-19.519c1.1601-2.8667 3.9926-4.8972 7.2871-4.8972h42.019c3.3079 0 6.1271 2.0305 7.3228 4.8972l8.2036 19.519c4.6076 1.2655 7.9719 5.4661 7.9719 10.479v22.953h-7.1475v7.0792c0 3.8753-3.1103 7.0316-6.9975 7.0316-3.8753 0-6.9975-3.1564-6.9975-7.0316v-7.0792h-46.731v0.001488zm-7.1594-14.436c3.2381 0 5.8493-2.6113 5.8493-5.8716 0-3.2262-2.6112-5.8597-5.8493-5.8597-3.2262 0-5.8835 2.6335-5.8835 5.8597 0 3.2603 2.6573 5.8716 5.8835 5.8716zm66.481-5.8716c0-3.2262-2.6113-5.8597-5.8835-5.8597-3.2262 0-5.8716 2.6335-5.8716 5.8597 0 3.2603 2.6454 5.8716 5.8716 5.8716 3.2722 0 5.8835-2.6113 5.8835-5.8716zm-6.4984-13.532l-6.9975-16.826c-0.32528-0.87042-1.1259-1.4854-2.1003-1.4854h-40.719c-0.94022 0-1.775 0.61494-2.0661 1.4854l-7.0317 16.826h58.915z"/>
</svg>
