<svg width="51" height="63" viewBox="0 0 51 63" fill="none" xmlns="http://www.w3.org/2000/svg">
<path d="M33.0295 11.6575C36.2487 11.6575 38.8583 9.0479 38.8583 5.82874C38.8583 2.60957 36.2487 0 33.0295 0C29.8104 0 27.2008 2.60957 27.2008 5.82874C27.2008 9.0479 29.8104 11.6575 33.0295 11.6575ZM13.8056 38.551L12.0084 42.7429H3.88583C1.74012 42.7429 0 44.483 0 46.6287C0 48.7744 1.74012 50.5145 3.88583 50.5145H13.2907C15.6283 50.5145 17.7327 49.1253 18.6471 46.9821L19.7145 44.4903L18.4188 43.7252C16.3156 42.483 14.7686 40.6445 13.8056 38.551ZM46.6299 27.1996H41.2832L38.1187 20.7333C36.6008 17.6307 33.814 15.3624 30.6167 14.5476L21.9853 11.9805C18.5487 11.1547 14.9701 11.9137 12.1687 14.0618L7.3515 17.7546C5.6478 19.06 5.32479 21.4983 6.63262 23.202C7.94044 24.9057 10.3776 25.2251 12.0801 23.9209L16.8997 20.2281C17.8311 19.5129 19.0175 19.2567 19.9683 19.4826L21.7533 20.0132L17.2045 30.6252C15.672 34.205 17.0454 38.398 20.3982 40.3774L30.7174 46.4696L27.3817 57.1228C26.7405 59.1702 27.8808 61.3499 29.9281 61.9911C30.3155 62.1125 30.7065 62.1708 31.0915 62.1708C32.7441 62.1708 34.2766 61.1058 34.7976 59.4446L38.6397 47.1727C39.3573 44.6506 38.2887 41.9414 36.0119 40.568L28.5754 36.1795L32.3774 26.6738L34.8389 31.7047C35.8103 33.6889 37.8649 34.97 40.0738 34.97H46.6299C48.7756 34.97 50.5157 33.2299 50.5157 31.0842C50.5157 28.9385 48.7756 27.1996 46.6299 27.1996Z" fill="black"/>
</svg>
